<?xml version="1.0" standalone="no"?>
<!DOCTYPE svg PUBLIC "-//W3C//DTD SVG 20010904//EN"
 "http://www.w3.org/TR/2001/REC-SVG-20010904/DTD/svg10.dtd">
<svg version="1.0" xmlns="http://www.w3.org/2000/svg"
 width="300.000000pt" height="69.000000pt" viewBox="0 0 300.000000 69.000000"
 preserveAspectRatio="xMidYMid meet">
<metadata>
Created by potrace 1.10, written by Peter Selinger 2001-2011
</metadata>
<g transform="translate(0.000000,69.000000) scale(0.100000,-0.100000)"
fill="#ffffff" stroke="none">
<path d="M1416 661 c-21 -23 -136 -84 -191 -101 -96 -29 -166 -94 -164 -151 0
-18 4 -13 16 19 9 25 28 52 46 65 31 23 52 32 167 76 30 12 79 39 108 61 53
41 72 48 72 30 0 -6 -27 -76 -60 -157 -33 -80 -60 -151 -60 -157 0 -15 127
272 135 307 7 25 5 27 -22 27 -17 0 -38 -9 -47 -19z"/>
<path d="M1871 632 c-34 -36 -111 -206 -99 -218 3 -2 22 36 43 86 35 87 76
150 96 150 16 0 10 -19 -20 -60 -27 -38 -87 -187 -78 -196 2 -3 19 33 37 78
18 46 46 100 62 121 20 25 27 44 23 57 -9 29 -24 25 -64 -18z"/>
<path d="M1626 618 c-21 -33 -57 -128 -48 -128 4 0 20 29 36 65 15 36 34 65
42 65 18 0 18 -1 -12 -71 -14 -34 -23 -66 -22 -71 2 -6 19 24 37 67 26 62 30
80 19 86 -22 14 -37 10 -52 -13z"/>
<path d="M172 560 c-12 -10 -44 -26 -70 -36 -65 -24 -94 -53 -95 -98 -1 -41
25 -78 43 -60 8 8 6 15 -5 24 -37 31 -10 73 69 105 49 20 56 21 50 7 -34 -82
-74 -196 -74 -215 0 -48 48 -62 92 -27 l25 19 11 -24 c15 -34 70 -35 99 -3 27
31 36 48 79 164 20 54 43 107 51 116 8 9 13 25 11 35 -7 37 -52 -33 -97 -150
-47 -126 -79 -169 -106 -147 -22 18 -14 56 36 178 43 107 45 112 26 112 -8 0
-24 -24 -37 -52 -82 -183 -100 -217 -120 -228 -13 -7 -26 -8 -31 -3 -10 10 20
104 70 222 17 40 31 75 31 77 0 11 -38 1 -58 -16z"/>
<path d="M1295 544 c-44 -18 -89 -36 -100 -39 -11 -4 -15 -8 -8 -11 13 -6 170
53 178 67 4 5 10 9 15 9 5 0 0 -20 -11 -45 -11 -25 -19 -51 -16 -58 2 -7 13
13 24 43 20 52 21 72 5 69 -4 -1 -43 -16 -87 -35z"/>
<path d="M2094 505 c-17 -54 -27 -65 -39 -45 -3 6 -20 10 -37 10 -85 0 -145
-191 -68 -215 24 -8 70 4 70 18 0 5 8 3 18 -6 25 -23 55 -21 77 3 21 24 35 26
35 5 0 -22 46 -30 74 -11 20 12 26 13 35 2 28 -34 92 14 134 101 34 70 57 50
37 -33 -11 -43 -11 -56 0 -69 18 -22 37 -19 67 11 14 14 26 24 27 22 22 -48
60 -61 103 -33 24 16 27 16 35 1 10 -18 43 -21 54 -5 5 8 9 7 14 -1 12 -20 37
-5 44 26 25 97 88 176 118 146 8 -8 5 -29 -12 -80 -26 -76 -23 -102 13 -102
37 0 121 100 96 116 -7 4 -19 -3 -31 -19 -67 -92 -77 -89 -41 11 25 71 25 73
7 93 -12 13 -28 19 -49 18 -17 -2 -36 1 -44 5 -17 11 -25 1 -47 -63 -23 -66
-89 -145 -99 -119 -3 9 5 45 19 80 30 75 31 82 10 74 -8 -3 -22 1 -30 9 -39
39 -108 5 -149 -73 -48 -94 -103 -137 -76 -61 16 47 13 84 -8 103 -10 9 -17
25 -14 35 7 27 -24 53 -48 41 -20 -11 -26 -45 -9 -55 17 -11 11 -30 -30 -93
-27 -42 -46 -62 -60 -62 -26 0 -25 9 10 90 31 72 36 90 21 90 -13 0 -26 -20
-51 -82 -27 -67 -68 -112 -89 -98 -12 7 -10 20 11 77 14 37 28 76 33 86 5 12
3 17 -8 17 -19 0 -30 -15 -51 -69 -21 -54 -72 -121 -92 -121 -20 0 -18 11 30
153 38 112 41 127 25 127 -13 0 -23 -15 -35 -55z m316 -35 c0 -5 -4 -10 -10
-10 -5 0 -10 5 -10 10 0 6 5 10 10 10 6 0 10 -4 10 -10z m-372 -42 c28 -28 -2
-117 -45 -137 -37 -17 -46 -5 -40 52 3 39 11 56 31 74 31 26 37 28 54 11z
m630 -28 c5 -68 -69 -144 -105 -107 -14 14 -15 22 -4 58 26 86 103 121 109 49z"/>
<path d="M551 498 c-10 -24 -28 -71 -41 -105 -22 -62 -72 -124 -84 -104 -4 6
7 45 24 88 34 89 35 93 16 93 -16 0 -76 -136 -76 -173 0 -38 25 -53 63 -39 21
8 33 9 35 2 6 -16 44 -12 65 7 18 17 19 17 28 0 13 -23 44 -22 69 3 25 25 26
25 33 0 11 -43 77 -12 112 54 29 54 9 56 -37 2 -57 -66 -67 -48 -29 50 35 90
36 94 17 94 -8 0 -26 -29 -41 -64 -28 -67 -78 -131 -94 -121 -9 5 -3 24 58
185 25 65 25 70 7 70 -9 0 -29 -38 -52 -96 -36 -91 -94 -177 -109 -162 -6 6
29 112 80 241 5 12 2 17 -9 17 -10 0 -24 -17 -35 -42z"/>
<path d="M463 514 c-3 -8 -1 -20 5 -26 15 -15 43 8 35 28 -7 19 -32 18 -40 -2z"/>
<path d="M743 514 c-3 -8 -1 -20 5 -26 15 -15 43 8 35 28 -7 19 -32 18 -40 -2z"/>
<path d="M926 494 c-20 -19 -20 -24 -1 -50 13 -19 12 -25 -15 -68 -34 -52 -37
-66 -15 -66 8 0 26 23 41 51 23 46 27 50 41 37 13 -14 13 -21 -1 -62 -28 -82
14 -115 71 -56 l30 30 11 -25 c19 -41 102 -46 144 -8 17 16 20 15 35 -6 13
-19 22 -22 52 -18 35 6 36 6 15 -11 -12 -9 -36 -25 -53 -34 -40 -22 -59 -61
-41 -83 30 -36 80 -7 110 65 7 16 17 30 22 30 5 0 29 21 53 46 27 28 45 40 45
30 0 -22 39 -46 76 -46 49 0 94 38 133 112 20 37 38 68 41 68 8 0 -4 -137 -12
-146 -4 -4 -13 -2 -21 4 -7 6 -18 7 -27 2 -24 -15 7 -40 49 -40 39 0 68 23
105 82 20 31 3 52 -19 22 -50 -73 -50 -73 -50 23 0 80 -2 88 -20 91 -15 2 -29
-13 -57 -65 -46 -82 -56 -96 -85 -111 -31 -17 -57 -15 -76 6 -28 31 -21 42 28
42 35 0 52 6 70 25 46 45 22 105 -43 105 -36 0 -86 -45 -96 -86 -8 -30 -65
-114 -77 -114 -4 0 10 41 31 91 34 79 37 91 23 96 -9 4 -18 2 -20 -3 -46 -125
-90 -182 -127 -168 -26 10 -13 59 42 167 2 4 -5 7 -15 7 -14 0 -28 -20 -52
-71 -46 -99 -118 -140 -155 -87 -23 32 -21 35 30 36 78 1 124 72 76 115 -42
39 -110 6 -142 -67 -20 -48 -68 -108 -80 -101 -4 3 -1 27 8 55 15 48 15 50 -6
73 -12 13 -22 34 -22 48 0 24 -16 49 -31 49 -4 0 -15 -7 -23 -16z m34 -24 c0
-5 -4 -10 -10 -10 -5 0 -10 5 -10 10 0 6 5 10 10 10 6 0 10 -4 10 -10z m249
-54 c4 -26 -25 -46 -66 -46 -39 0 -41 8 -12 44 25 32 72 33 78 2z m389 0 c5
-25 -10 -37 -57 -46 -48 -9 -53 2 -20 44 25 32 72 33 77 2z m-293 -250 c-17
-25 -45 -36 -45 -17 0 10 53 52 58 46 2 -2 -4 -15 -13 -29z"/>
<path d="M1536 403 c-6 -14 -5 -15 5 -6 7 7 10 15 7 18 -3 3 -9 -2 -12 -12z"/>
<path d="M1470 251 c0 -5 -19 -37 -42 -71 -30 -45 -52 -67 -82 -80 -24 -11
-33 -19 -23 -19 11 -1 32 7 49 16 44 27 131 163 103 163 -3 0 -5 -4 -5 -9z"/>
<path d="M1256 235 c-9 -26 -7 -32 5 -12 6 10 9 21 6 23 -2 3 -7 -2 -11 -11z"/>
<path d="M1721 179 c-53 -114 -96 -159 -154 -159 -43 0 -67 17 -87 66 -11 24
-24 44 -29 44 -5 0 -19 -13 -30 -29 -11 -16 -40 -36 -62 -45 -50 -20 -85 -10
-112 32 -18 27 -18 27 -11 2 9 -36 21 -48 55 -55 47 -11 88 4 129 46 l38 39 6
-32 c10 -52 42 -78 95 -78 54 0 92 22 128 74 31 46 76 147 69 154 -3 3 -19
-24 -35 -59z"/>
<path d="M1517 223 c-4 -3 -7 -35 -7 -69 0 -55 3 -65 26 -83 23 -18 29 -19 57
-8 32 14 87 84 105 136 17 47 -1 37 -21 -12 -22 -55 -78 -117 -106 -117 -35 0
-55 43 -47 105 6 55 5 61 -7 48z"/>
</g>
</svg>
