<?xml version="1.0" standalone="no"?>
<!DOCTYPE svg PUBLIC "-//W3C//DTD SVG 20010904//EN"
 "http://www.w3.org/TR/2001/REC-SVG-20010904/DTD/svg10.dtd">
<svg version="1.0" xmlns="http://www.w3.org/2000/svg"
 width="300.000000pt" height="102.000000pt" viewBox="0 0 300.000000 102.000000"
 preserveAspectRatio="xMidYMid meet">
<metadata>
Created by potrace 1.10, written by Peter Selinger 2001-2011
</metadata>
<g transform="translate(0.000000,102.000000) scale(0.050000,-0.050000)"
fill="#000000" stroke="none">
<path d="M2430 2009 c-66 -15 -151 -29 -190 -31 -48 -2 -56 -6 -25 -12 25 -5
45 -12 45 -17 0 -4 -36 -176 -80 -383 -91 -430 -96 -490 -41 -545 86 -86 273
-58 361 53 61 78 47 105 -16 31 -126 -152 -126 -134 -4 438 55 257 100 474
100 482 0 18 2 18 -150 -16z"/>
<path d="M2970 2009 c-66 -15 -151 -29 -190 -31 -48 -2 -56 -6 -25 -12 25 -5
45 -12 45 -17 0 -4 -36 -176 -80 -383 -107 -503 -102 -560 50 -598 100 -25
358 131 304 184 -5 6 -29 -17 -53 -51 -42 -59 -101 -83 -101 -41 0 11 45 230
100 485 55 256 100 472 100 480 0 18 2 18 -150 -16z"/>
<path d="M1808 2001 c-60 -25 -128 -118 -128 -174 0 -129 180 -166 275 -57
110 127 4 293 -147 231z"/>
<path d="M3428 2001 c-70 -29 -131 -122 -124 -189 18 -182 316 -112 316 75 0
98 -94 154 -192 114z"/>
<path d="M65 1966 c43 -7 58 -24 74 -82 37 -139 181 -823 181 -863 0 -87 41
-44 239 252 135 202 213 301 222 283 8 -14 40 -154 71 -311 32 -157 62 -284
68 -284 5 1 127 178 270 394 143 216 299 441 347 500 89 110 98 145 26 107
-51 -28 -184 -28 -254 -1 -72 27 -70 35 -26 -172 l39 -182 -91 -138 c-50 -77
-91 -130 -91 -119 0 11 -27 146 -60 300 -33 154 -60 286 -60 294 0 7 34 17 75
21 41 5 -60 8 -225 8 -165 1 -271 -3 -236 -7 62 -8 64 -12 100 -172 l37 -163
-100 -146 -100 -147 -55 266 c-30 146 -60 286 -66 310 -9 37 0 45 55 52 36 4
-61 8 -215 8 -154 0 -255 -4 -225 -8z"/>
<path d="M3968 1639 c-117 -24 -207 -116 -260 -263 -120 -340 104 -545 339
-310 78 78 84 81 86 38 6 -104 131 -166 253 -125 75 24 208 150 179 168 -11 6
-31 -10 -45 -37 -26 -49 -77 -80 -97 -60 -6 6 18 143 53 304 34 162 60 296 58
299 -3 3 -73 -16 -155 -42 -143 -45 -150 -46 -199 -12 -62 44 -132 57 -212 40z
m226 -91 c18 -49 -51 -317 -101 -392 -90 -133 -147 -75 -112 112 43 230 168
395 213 280z"/>
<path d="M5049 1647 c-12 -4 -106 -20 -210 -35 -104 -15 -164 -29 -134 -30 47
-2 54 -9 45 -47 -5 -25 -36 -160 -67 -300 l-56 -255 154 0 154 0 34 175 c19
96 47 205 63 242 15 37 23 75 16 86 -6 10 0 50 13 89 24 74 22 87 -12 75z"/>
<path d="M5234 1630 c-87 -30 -128 -61 -158 -118 -19 -38 -16 -37 31 6 80 73
83 24 17 -275 l-57 -263 153 0 153 0 46 205 c82 365 19 515 -185 445z"/>
<path d="M1700 1609 c-93 -13 -145 -25 -115 -27 65 -2 64 13 15 -211 -64 -287
-46 -369 90 -403 69 -17 219 42 270 106 61 78 47 105 -16 31 -116 -140 -122
-107 -44 245 33 148 60 274 60 280 0 13 -56 9 -260 -21z"/>
<path d="M3320 1609 c-93 -13 -145 -25 -115 -27 65 -2 64 13 15 -211 -78 -349
-4 -471 231 -382 79 30 201 151 153 151 -11 0 -34 -22 -52 -50 -35 -54 -92
-68 -92 -22 0 15 27 147 60 292 33 145 60 268 60 272 0 11 -65 6 -260 -23z"/>
<path d="M5595 1590 c-41 -28 -83 -68 -95 -89 -37 -70 -21 -70 37 -2 82 100
93 53 41 -188 -50 -234 -37 -290 78 -333 105 -40 324 65 324 154 0 16 -26 0
-58 -37 -87 -96 -96 -58 -45 194 47 232 43 290 -25 336 -50 33 -183 14 -257
-35z"/>
<path d="M165 826 c45 -12 44 -29 -22 -324 -44 -197 -63 -252 -94 -264 -22 -9
33 -15 131 -14 94 0 154 5 135 10 -44 11 -45 -2 16 279 67 315 65 310 114 303
113 -17 79 -256 -43 -299 -41 -14 18 -193 81 -246 60 -51 117 -67 117 -33 0
11 23 47 52 80 l52 62 -73 0 c-186 0 -270 96 -120 136 112 30 189 103 189 178
-1 122 -61 147 -344 144 -124 -2 -210 -7 -191 -12z"/>
<path d="M3105 826 c44 -11 45 -2 -15 -281 -66 -306 -66 -305 -113 -305 -21 0
-35 -7 -30 -15 5 -8 67 -12 137 -8 l128 6 47 233 c80 398 103 428 227 307 128
-126 -14 -523 -188 -523 -32 0 -58 -10 -58 -23 0 -74 327 39 395 138 202 290
40 489 -394 483 -94 -2 -155 -7 -136 -12z"/>
<path d="M909 601 c-195 -99 -201 -329 -9 -381 85 -23 163 -11 235 35 77 50
49 64 -35 18 -137 -75 -189 6 -141 222 26 113 40 132 89 113 51 -20 37 -106
-26 -170 -63 -62 -57 -70 32 -37 74 28 146 97 146 140 0 89 -166 124 -291 60z"/>
<path d="M1350 608 c-66 -13 -104 -25 -85 -26 19 -1 35 -13 36 -27 0 -14 8
-106 18 -206 22 -227 11 -286 -57 -313 -30 -12 -41 -25 -27 -30 47 -17 209 78
249 147 22 37 53 67 70 67 89 0 209 245 179 366 -10 39 -22 45 -83 38 -91 -11
-97 -23 -49 -115 64 -126 35 -269 -55 -269 -22 0 -46 153 -46 294 0 103 -2
104 -150 74z"/>
<path d="M1960 606 c-198 -103 -211 -335 -20 -386 112 -30 280 20 280 84 0 13
-14 9 -35 -9 -93 -84 -205 -50 -205 61 1 115 51 254 91 254 79 0 59 -152 -26
-199 -84 -45 -9 -36 89 11 97 47 132 121 81 171 -47 48 -175 54 -255 13z"/>
<path d="M2460 625 c-169 -30 -157 -150 23 -238 155 -76 174 -97 116 -128 -61
-32 -137 -6 -212 73 l-65 69 -32 -61 c-41 -80 -30 -93 98 -120 253 -52 342 51
202 234 -71 93 -85 134 -52 155 24 15 122 -102 122 -146 1 -28 3 -29 20 -3 50
77 24 154 -55 167 -79 13 -85 13 -165 -2z"/>
<path d="M3918 614 l-91 -17 -27 -162 c-35 -218 79 -310 202 -163 19 24 18 27
-9 16 -42 -16 -42 20 -2 176 42 163 38 171 -73 150z"/>
<path d="M4187 617 l-83 -18 -34 -147 c-55 -231 63 -331 210 -176 40 42 41 45
5 15 -25 -21 -51 -32 -57 -25 -11 10 41 282 67 349 10 28 8 28 -108 2z"/>
<path d="M4490 610 c-66 -14 -105 -27 -87 -28 30 -2 30 -16 -5 -167 -20 -91
-37 -172 -37 -181 -1 -9 41 -13 93 -10 93 6 95 7 110 86 31 158 36 170 75 170
21 0 44 -9 51 -20 25 -40 45 -18 58 63 18 110 4 117 -78 37 l-69 -66 12 73 c7
40 9 72 5 70 -5 -1 -62 -13 -128 -27z"/>
<path d="M4942 605 c-211 -108 -179 -463 34 -374 64 27 93 79 31 55 -43 -16
-25 173 23 247 73 112 111 42 62 -118 -31 -105 -11 -170 61 -196 50 -19 171
35 182 81 5 21 0 19 -15 -5 -64 -102 -75 -11 -22 190 41 161 42 159 -66 123
-75 -26 -92 -26 -143 1 -73 38 -65 38 -147 -4z"/>
<path d="M5530 611 c-66 -12 -109 -27 -96 -32 22 -8 -4 -188 -46 -324 -9 -30
3 -35 87 -35 l98 0 25 125 c14 69 33 161 42 205 9 44 15 81 13 82 -2 0 -57 -9
-123 -21z"/>
<path d="M5735 608 c-30 -16 -55 -34 -55 -40 0 -6 9 -5 20 2 26 16 25 -7 -4
-163 -26 -146 -4 -192 92 -192 58 0 152 55 152 89 0 12 -19 5 -43 -16 l-43
-38 13 85 c32 208 34 236 19 257 -28 40 -95 47 -151 16z"/>
</g>
</svg>
